<?xml version="1.0" encoding="UTF-8"?>
<svg version="1.1" xmlns="http://www.w3.org/2000/svg" width="1024" height="1024">
<path d="M0 0 C41.91 0 83.82 0 127 0 C127 2.31 127 4.62 127 7 C125.56720703 7.14695312 125.56720703 7.14695312 124.10546875 7.296875 C113.52204946 8.52087962 102.61436141 9.82849019 95 18 C87.1180774 29.23370364 88.66679986 44.9147202 88.5859375 57.984375 C88.56896437 59.67985897 88.5511436 61.37533468 88.5324707 63.07080078 C88.46975203 69.29710589 88.42332552 75.52356654 88.375 81.75 C88.25125 95.6925 88.1275 109.635 88 124 C131.56 124 175.12 124 220 124 C219.87625 110.42875 219.7525 96.8575 219.625 82.875 C219.59100098 78.61706543 219.55700195 74.35913086 219.52197266 69.97216797 C219.48198694 66.0977803 219.48198694 66.0977803 219.43954468 62.22341919 C219.42205814 60.52073268 219.4081682 58.81800656 219.39730835 57.11526489 C220.1696468 36.47351066 220.1696468 36.47351066 213 18 C204.49745053 9.63427316 190.3994015 7.81424296 179 7 C177.875 2.25 177.875 2.25 179 0 C249.62 0 320.24 0 393 0 C400 56 400 56 400 60 C396.37 60 392.74 60 389 60 C388.52691406 58.91203125 388.05382812 57.8240625 387.56640625 56.703125 C379.89046384 39.46864743 370.2112851 25.2679332 352 18 C341.01562768 14.32830072 330.59041573 13.85546228 319.09375 13.90234375 C317.33659668 13.90385437 317.33659668 13.90385437 315.54394531 13.90539551 C311.19595349 13.91060117 306.84797569 13.92456232 302.5 13.9375 C292.765 13.958125 283.03 13.97875 273 14 C273 49.97 273 85.94 273 123 C310.46779041 125.5776982 310.46779041 125.5776982 344.1953125 112.25390625 C350.90213623 105.26136582 355.15701748 95.12528048 358 86 C360.64 86 363.28 86 366 86 C366 115.37 366 144.74 366 175 C363.69 175 361.38 175 359 175 C358.73372803 174.46632813 358.46745605 173.93265625 358.19311523 173.3828125 C356.95336027 170.91557473 355.69559711 168.45793212 354.4375 166 C354.01919922 165.16082031 353.60089844 164.32164062 353.16992188 163.45703125 C348.76861086 154.91914974 343.92243524 148.29430604 335.125 144.125 C333.99320313 143.57070313 332.86140625 143.01640625 331.6953125 142.4453125 C323.82269734 139.36617126 316.46241901 138.71429961 308.05859375 138.8046875 C307.05031021 138.8075174 306.04202667 138.81034729 305.00318909 138.81326294 C301.81450017 138.82436823 298.62610259 138.84945455 295.4375 138.875 C293.26237388 138.88504228 291.08724331 138.89416594 288.91210938 138.90234375 C283.6079752 138.92427584 278.30400843 138.95765589 273 139 C272.97669936 150.45820685 272.9589954 161.91640795 272.94818783 173.37463379 C272.94299744 178.69670455 272.93597069 184.01875896 272.92456055 189.34082031 C272.9135937 194.48907631 272.90769432 199.6373167 272.90512276 204.7855835 C272.90329312 206.73728684 272.89972111 208.68898945 272.89426994 210.64068604 C271.38803608 236.85743595 271.38803608 236.85743595 281 260 C289.9255005 265.70724721 298.85041719 267.31117503 309.24609375 267.30078125 C310.21547379 267.30506638 311.18485382 267.3093515 312.18360901 267.31376648 C314.23006413 267.31948602 316.27653957 267.32002765 318.32299805 267.31567383 C321.3973427 267.31254092 324.47069777 267.33590908 327.54492188 267.36132812 C346.83008611 267.42396095 366.82146466 266.3571111 382 253 C382.64324219 252.46117187 383.28648437 251.92234375 383.94921875 251.3671875 C395.63303527 240.76223027 401.33033567 225.32933409 407 211 C407.45761719 209.86820313 407.91523437 208.73640625 408.38671875 207.5703125 C409.26901401 205.38469688 410.13705187 203.19332649 411 201 C414.3 201 417.6 201 421 201 C420.44539004 211.56821281 419.52150998 222.02453206 418.1875 232.52734375 C418.01165824 233.93693814 417.83612768 235.34657139 417.66088867 236.75624084 C417.29758588 239.66984964 416.93087604 242.58300174 416.56152344 245.49584961 C416.08774903 249.23417104 415.62245012 252.97349269 415.15953064 256.71317196 C414.80067395 259.60534835 414.4376896 262.49699468 414.07339478 265.38849068 C413.89992113 266.76909531 413.72769352 268.14985709 413.55673218 269.53077507 C413.31934828 271.44283431 413.07585164 273.35413172 412.83203125 275.26538086 C412.69514893 276.3518541 412.5582666 277.43832733 412.41723633 278.557724 C412 281 412 281 411 282 C408.01646677 282.09799521 405.05607279 282.12991431 402.0721283 282.12025452 C400.64977044 282.12153615 400.64977044 282.12153615 399.19867808 282.12284368 C395.99563319 282.12450138 392.79263974 282.1189724 389.58959961 282.11352539 C387.3037669 282.11324356 385.0179341 282.11340118 382.73210144 282.1139679 C376.50507866 282.11425601 370.27807495 282.108357 364.05105662 282.10139394 C357.55141848 282.09516275 351.05177995 282.09455679 344.55213928 282.09336853 C333.63591164 282.09060881 322.71969108 282.08435325 311.8034668 282.07543945 C300.55769893 282.06626609 289.31193296 282.05918489 278.06616211 282.05493164 C277.02708173 282.05453756 277.02708173 282.05453756 275.96700983 282.05413551 C272.49197595 282.05283051 269.01694205 282.05156679 265.54190814 282.05032361 C236.69460077 282.03995008 207.84730055 282.02225685 179 282 C177.95550089 278.86650268 178.06576355 278.01031744 179 275 C179.56396484 274.89977539 180.12792969 274.79955078 180.70898438 274.69628906 C183.30845607 274.2268513 185.90405753 273.73856221 188.5 273.25 C189.386875 273.09273437 190.27375 272.93546875 191.1875 272.7734375 C201.28633875 270.84277715 207.94967084 267.43901344 214.1875 259.0625 C219.07812388 250.79903206 219.14908234 241.90860978 219.20532227 232.56665039 C219.21535499 231.52502715 219.22538771 230.48340391 219.23572445 229.41021633 C219.26697517 226.05605186 219.29182503 222.70187552 219.31640625 219.34765625 C219.33482209 217.26981228 219.35365942 215.19197201 219.3729248 213.11413574 C219.44122116 205.43030084 219.5013707 197.74639527 219.5625 190.0625 C219.706875 172.881875 219.85125 155.70125 220 138 C176.44 138 132.88 138 88 138 C88.144375 153.901875 88.28875 169.80375 88.4375 186.1875 C88.50215454 193.68440552 88.50215454 193.68440552 88.56811523 201.33276367 C88.61142687 205.86179918 88.61142687 205.86179918 88.65589905 210.39082336 C88.67496323 212.38857071 88.69232099 214.38633483 88.70826721 216.3841095 C88.34585904 238.69795926 88.34585904 238.69795926 94 260 C94.43505859 261.08087891 94.43505859 261.08087891 94.87890625 262.18359375 C96.2916254 264.47249412 97.55109569 264.95627879 100 266 C100.61617188 266.39058594 101.23234375 266.78117187 101.8671875 267.18359375 C108.52018998 271.3384844 115.36420532 272.59265553 123 274 C124.33669245 274.3195969 125.67203709 274.64587656 127 275 C127 277.31 127 279.62 127 282 C85.09 282 43.18 282 0 282 C0 279.69 0 277.38 0 275 C0.55872803 274.90501221 1.11745605 274.81002441 1.69311523 274.7121582 C19.8002438 271.91969539 19.8002438 271.91969539 33.78515625 260.8984375 C38.24773375 253.92476334 39.14899909 246.50324208 39.14044189 238.42404175 C39.14341302 237.54971595 39.14638414 236.67539015 39.1494453 235.77456963 C39.15813028 232.83912401 39.15964039 229.90371918 39.16113281 226.96826172 C39.1657612 224.86569634 39.17078589 222.7631318 39.17617798 220.66056824 C39.18930367 214.94337416 39.1957475 209.22619183 39.20018864 203.50898504 C39.20311963 199.93623668 39.20722453 196.36349153 39.21169281 192.79074478 C39.22536937 181.61011866 39.23503475 170.42949987 39.2388947 159.24886596 C39.2433733 146.34730422 39.2609114 133.44584853 39.2898953 120.54431903 C39.31152495 110.56964014 39.3215997 100.59499106 39.32293582 90.62028897 C39.3239831 84.66420549 39.32987442 78.70822169 39.34775543 72.75216293 C39.36425777 67.14612693 39.36638102 61.5402653 39.35761642 55.93421364 C39.35684716 53.88078278 39.3611741 51.82734246 39.37107468 49.77393532 C39.8317679 31.29810384 39.8317679 31.29810384 31.078125 15.6875 C22.60854133 8.80994334 10.50708401 7.66106181 0 8 C0 5.36 0 2.72 0 0 Z " fill="#E8CB79" transform="translate(308,344)"/>
<path d="M0 0 C70.62 0 141.24 0 214 0 C221 56 221 56 221 60 C217.37 60 213.74 60 210 60 C209.52691406 58.91203125 209.05382812 57.8240625 208.56640625 56.703125 C202.34380086 42.73176523 195.51705867 32.22807728 183 23 C182.01 22.01 182.01 22.01 181 21 C181 20.34 181 19.68 181 19 C180.21753906 18.66226562 179.43507813 18.32453125 178.62890625 17.9765625 C177.61699219 17.53054688 176.60507812 17.08453125 175.5625 16.625 C174.55316406 16.18414062 173.54382813 15.74328125 172.50390625 15.2890625 C170 14 170 14 169 12 C168.360625 12.20625 167.72125 12.4125 167.0625 12.625 C163.4193854 13.07109567 160.70145483 12.39327501 157.18359375 11.47265625 C154.72078366 10.858961 154.72078366 10.858961 151 11 C151.33 9.68 151.66 8.36 152 7 C152.99 7.33 153.98 7.66 155 8 C157.35188447 7.40206327 159.68925595 6.74118205 162 6 C161.67 5.01 161.34 4.02 161 3 C153.74 3 146.48 3 139 3 C139 2.67 139 2.34 139 2 C70.69 1.505 70.69 1.505 1 1 C1 2.65 1 4.3 1 6 C3.64 6 6.28 6 9 6 C9 6.33 9 6.66 9 7 C6.03 7 3.06 7 0 7 C-1.125 2.25 -1.125 2.25 0 0 Z " fill="#D0AF62" transform="translate(487,344)"/>
<path d="M0 0 C20.46 0 40.92 0 62 0 C62 0.66 62 1.32 62 2 C62.99 2.495 62.99 2.495 64 3 C61.2134483 5.7865517 58.84575573 5.65662895 55 6 C54.34 5.67 53.68 5.34 53 5 C52.67 5.99 52.34 6.98 52 8 C52.845625 7.79375 53.69125 7.5875 54.5625 7.375 C58.56343422 6.93853445 61.18271254 7.82011115 65 9 C67.79244045 9.16928543 67.79244045 9.16928543 70 9 C70.33 8.34 70.66 7.68 71 7 C71 7.66 71 8.32 71 9 C71.99 9.495 71.99 9.495 73 10 C72.67 10.33 72.34 10.66 72 11 C72.69867187 11.25394531 73.39734375 11.50789063 74.1171875 11.76953125 C75.02726563 12.11371094 75.93734375 12.45789063 76.875 12.8125 C78.23238281 13.31716797 78.23238281 13.31716797 79.6171875 13.83203125 C82 15 82 15 84 18 C79.08525781 17.46867652 74.90283711 15.89321832 70.3671875 14.03515625 C61.09552134 11.18481805 51.65473938 10.685418 42.015625 10.5859375 C40.83401794 10.56657135 39.65241089 10.5472052 38.43499756 10.5272522 C34.70673562 10.46806314 30.97844177 10.42131605 27.25 10.375 C24.70311245 10.33676428 22.15623707 10.29770941 19.609375 10.2578125 C13.40635892 10.16241241 7.20326798 10.07719238 1 10 C1 9.34 1 8.68 1 8 C0.34 8 -0.32 8 -1 8 C-1.625 6.25 -1.625 6.25 -2 4 C-1.34 2.68 -0.68 1.36 0 0 Z " fill="#E6C673" transform="translate(586,347)"/>
<path d="M0 0 C41.91 0 83.82 0 127 0 C127 2.31 127 4.62 127 7 C125.56720703 7.14695312 125.56720703 7.14695312 124.10546875 7.296875 C113.221445 8.55564544 103.15134496 10.06896166 95 18 C94.34 17.67 93.68 17.34 93 17 C94.375 15 94.375 15 96 13 C96.66 13 97.32 13 98 13 C98 12.34 98 11.68 98 11 C99.4540625 10.0409375 99.4540625 10.0409375 100.9375 9.0625 C104.24255225 7.28938993 104.24255225 7.28938993 105 4 C104.01 3.505 104.01 3.505 103 3 C102.67 3.66 102.34 4.32 102 5 C101.34 5 100.68 5 100 5 C100 4.34 100 3.68 100 3 C97.69 3 95.38 3 93 3 C92.67 3.66 92.34 4.32 92 5 C92 4.34 92 3.68 92 3 C90.989375 3.165 89.97875 3.33 88.9375 3.5 C84.05809856 4.11960653 79.7049941 4.56833137 75 3 C74.67 3.66 74.34 4.32 74 5 C74 4.34 74 3.68 74 3 C72.02 3 70.04 3 68 3 C67.67 3.66 67.34 4.32 67 5 C67 4.34 67 3.68 67 3 C60.29481414 2.80181717 54.34823202 2.69155199 48 5 C48 4.34 48 3.68 48 3 C44.7 3.33 41.4 3.66 38 4 C37.67 4.99 37.34 5.98 37 7 C36.01 7 35.02 7 34 7 C34 5.68 34 4.36 34 3 C32.95199219 3.12568359 32.95199219 3.12568359 31.8828125 3.25390625 C30.97273438 3.35574219 30.06265625 3.45757812 29.125 3.5625 C28.22007812 3.66691406 27.31515625 3.77132813 26.3828125 3.87890625 C24 4 24 4 22 3 C19.6599583 3.28241883 17.32495277 3.61250787 15 4 C15 5.32 15 6.64 15 8 C10.05 8 5.1 8 0 8 C0 5.36 0 2.72 0 0 Z " fill="#CDAB5E" transform="translate(308,344)"/>
<path d="M0 0 C0.99 0 1.98 0 3 0 C3 0.66 3 1.32 3 2 C3.66 2 4.32 2 5 2 C5 2.66 5 3.32 5 4 C5.66 4 6.32 4 7 4 C7.9765625 5.72526042 8.953125 7.45052083 9.9296875 9.17578125 C10.89428581 10.81982289 11.94267059 12.41400588 13 14 C13.6317293 16.08442839 14.18632352 18.19289019 14.6875 20.3125 C14.95949219 21.42238281 15.23148437 22.53226562 15.51171875 23.67578125 C16.09578034 27.65207254 15.680755 30.85350767 14.46960545 34.67238998 C13.77317676 38.12425453 13.84625653 41.56681665 13.84178162 45.0737915 C13.83684364 45.89391968 13.83190566 46.71404785 13.82681805 47.55902839 C13.81144489 50.31050907 13.8030829 53.06196642 13.79467773 55.81347656 C13.78509907 57.78448695 13.775089 59.75549529 13.76467896 61.72650146 C13.73762258 67.08145258 13.71661695 72.43641252 13.69667697 77.79139423 C13.67482196 83.38615339 13.64743089 88.98088534 13.62062073 94.57562256 C13.57068729 105.17193188 13.52575086 115.7682563 13.48259836 126.36459517 C13.43323156 138.42735427 13.37831136 150.49008608 13.32291877 162.55281878 C13.20908873 187.36852038 13.10225189 212.18424818 13 237 C13.66 237 14.32 237 15 237 C14.34 238.65 13.68 240.3 13 242 C12.34 242 11.68 242 11 242 C11.33 242.99 11.66 243.98 12 245 C10.44189932 251.81669047 3.66480243 258.2731563 -2 262 C-4.8125 262.75 -4.8125 262.75 -7 263 C-7.495 261.515 -7.495 261.515 -8 260 C-7.41992188 259.72027344 -6.83984375 259.44054687 -6.2421875 259.15234375 C0.91981599 255.4767941 5.84808917 251.44337572 8.8125 243.8125 C10.57704322 238.14738755 11.14673236 233.36312696 11.14044189 227.42404175 C11.14341302 226.54971595 11.14638414 225.67539015 11.1494453 224.77456963 C11.15813028 221.83912401 11.15964039 218.90371918 11.16113281 215.96826172 C11.1657612 213.86569634 11.17078589 211.7631318 11.17617798 209.66056824 C11.18930367 203.94337416 11.1957475 198.22619183 11.20018864 192.50898504 C11.20311963 188.93623668 11.20722453 185.36349153 11.21169281 181.79074478 C11.22536937 170.61011866 11.23503475 159.42949987 11.2388947 148.24886596 C11.2433733 135.34730422 11.2609114 122.44584853 11.2898953 109.54431903 C11.31152495 99.56964014 11.3215997 89.59499106 11.32293582 79.62028897 C11.3239831 73.66420549 11.32987442 67.70822169 11.34775543 61.75216293 C11.36425777 56.14612693 11.36638102 50.5402653 11.35761642 44.93421364 C11.35684716 42.88078278 11.3611741 40.82734246 11.37107468 38.77393532 C12.09347557 21.39053649 12.09347557 21.39053649 4.4375 6.5 C3.83808594 5.8709375 3.23867188 5.241875 2.62109375 4.59375 C2.08613281 4.0678125 1.55117188 3.541875 1 3 C0.34 2.34 -0.32 1.68 -1 1 C-0.67 0.67 -0.34 0.34 0 0 Z " fill="#D0B164" transform="translate(336,355)"/>
<path d="M0 0 C-0.33 0.99 -0.66 1.98 -1 3 C-6.61 3.99 -12.22 4.98 -18 6 C-17.01282353 7.21037507 -17.01282353 7.21037507 -15.11401367 7.09765625 C-13.90322144 7.08025391 -13.90322144 7.08025391 -12.66796875 7.0625 C-11.78689453 7.05476562 -10.90582031 7.04703125 -9.99804688 7.0390625 C-8.13606544 7.01318368 -6.27408623 6.98714407 -4.41210938 6.9609375 C-3.52716797 6.95320312 -2.64222656 6.94546875 -1.73046875 6.9375 C-0.91989014 6.92589844 -0.10931152 6.91429687 0.72583008 6.90234375 C3 7 3 7 5.1081543 7.56640625 C7.20684347 8.22003567 7.20684347 8.22003567 10 7 C16.54098361 6.7704918 16.54098361 6.7704918 19 8 C21.10231877 8.09751547 23.20792623 8.12976687 25.3125 8.125 C26.44300781 8.12757813 27.57351563 8.13015625 28.73828125 8.1328125 C31.63231213 8.01497172 34.17955922 7.60302353 37 7 C39.33301986 6.96175377 41.66711508 6.95425716 44 7 C44 7.66 44 8.32 44 9 C45.051875 8.649375 46.10375 8.29875 47.1875 7.9375 C51.01865651 6.99541233 52.31092295 7.19004946 56 8 C57.70663667 8.0880566 59.41609459 8.13058072 61.125 8.1328125 C62.55585938 8.13474609 62.55585938 8.13474609 64.015625 8.13671875 C65.00046875 8.13285156 65.9853125 8.12898437 67 8.125 C67.98484375 8.12886719 68.9696875 8.13273438 69.984375 8.13671875 C70.93828125 8.13542969 71.8921875 8.13414062 72.875 8.1328125 C73.73867188 8.13168457 74.60234375 8.13055664 75.4921875 8.12939453 C78.0272957 8.05988861 78.0272957 8.05988861 80.57763672 7.48193359 C84.11848923 6.77747453 87.55754749 7.19458968 91.125 7.5 C96.62008977 8.03902418 96.62008977 8.03902418 102 7 C102 7.66 102 8.32 102 9 C103.32 9 104.64 9 106 9 C106 7.02 106 5.04 106 3 C106.33 3 106.66 3 107 3 C107 5.31 107 7.62 107 10 C65.09 10 23.18 10 -20 10 C-20 7.69 -20 5.38 -20 3 C-17.22970414 2.49685437 -14.4588348 1.99736162 -11.6875 1.5 C-10.90181641 1.35691406 -10.11613281 1.21382812 -9.30664062 1.06640625 C-8.54931641 0.93105469 -7.79199219 0.79570313 -7.01171875 0.65625 C-6.31522217 0.53056641 -5.61872559 0.40488281 -4.90112305 0.27539062 C-3 0 -3 0 0 0 Z " fill="#C6A559" transform="translate(328,616)"/>
<path d="M0 0 C0.66 0 1.32 0 2 0 C3.29107891 3.87323674 3.14241644 7.53397127 3.1328125 11.5703125 C3.13417709 12.45542511 3.13554169 13.34053772 3.13694763 14.25247192 C3.1390015 17.21001718 3.13257451 20.16746458 3.125 23.125 C3.12378143 24.1394519 3.12256287 25.15390381 3.12130737 26.19909668 C3.0957673 44.55151627 2.86433867 62.90025047 2.5625 81.25 C2.5429425 82.51749084 2.52338501 83.78498169 2.50323486 85.09088135 C2.44633285 88.69091351 2.38261266 92.29075329 2.31640625 95.890625 C2.29968369 96.97288361 2.28296112 98.05514221 2.26573181 99.17019653 C2.24579666 100.16107269 2.22586151 101.15194885 2.20532227 102.17285156 C2.18977798 103.03702698 2.1742337 103.90120239 2.15821838 104.79156494 C2 107 2 107 1 110 C1.20625 110.78375 1.4125 111.5675 1.625 112.375 C2.1346161 115.94231267 0.99848896 117.03672327 -1 120 C-1.6579748 121.34830902 -2.30304945 122.70296311 -2.9375 124.0625 C-4.52365995 127.30218577 -6.22961626 129.62538537 -9 132 C-9.66 131.67 -10.32 131.34 -11 131 C-10.27683594 129.91332031 -10.27683594 129.91332031 -9.5390625 128.8046875 C-8.90742187 127.83789062 -8.27578125 126.87109375 -7.625 125.875 C-6.68527344 124.44800781 -6.68527344 124.44800781 -5.7265625 122.9921875 C-0.91799017 114.65877934 -0.84994947 105.74980192 -0.79467773 96.38305664 C-0.77982834 94.81607529 -0.77982834 94.81607529 -0.76467896 93.21743774 C-0.73321774 89.78169991 -0.70836755 86.34594827 -0.68359375 82.91015625 C-0.66301094 80.52119091 -0.64201412 78.1322291 -0.62062073 75.74327087 C-0.56553718 69.46828073 -0.51606758 63.19325847 -0.46777344 56.91821289 C-0.41745805 50.50989945 -0.36182446 44.10163241 -0.30664062 37.69335938 C-0.1992269 25.12894619 -0.09756419 12.56449333 0 0 Z " fill="#FBEA96" transform="translate(528,480)"/>
<path d="M0 0 C0.89589844 0.00322266 1.79179688 0.00644531 2.71484375 0.00976562 C4.12056641 0.02233398 4.12056641 0.02233398 5.5546875 0.03515625 C6.49957031 0.03966797 7.44445312 0.04417969 8.41796875 0.04882812 C10.75527137 0.06063268 13.09244811 0.07709866 15.4296875 0.09765625 C15.4296875 0.75765625 15.4296875 1.41765625 15.4296875 2.09765625 C16.0896875 2.42765625 16.7496875 2.75765625 17.4296875 3.09765625 C14.6431358 5.88420795 12.27544323 5.7542852 8.4296875 6.09765625 C7.7696875 5.76765625 7.1096875 5.43765625 6.4296875 5.09765625 C6.0996875 6.08765625 5.7696875 7.07765625 5.4296875 8.09765625 C6.2753125 7.89140625 7.1209375 7.68515625 7.9921875 7.47265625 C11.99312172 7.0361907 14.61240004 7.9177674 18.4296875 9.09765625 C21.22212795 9.26694168 21.22212795 9.26694168 23.4296875 9.09765625 C23.7596875 8.43765625 24.0896875 7.77765625 24.4296875 7.09765625 C24.4296875 7.75765625 24.4296875 8.41765625 24.4296875 9.09765625 C25.0896875 9.42765625 25.7496875 9.75765625 26.4296875 10.09765625 C26.0996875 10.42765625 25.7696875 10.75765625 25.4296875 11.09765625 C26.47769531 11.47857422 26.47769531 11.47857422 27.546875 11.8671875 C28.45695313 12.21136719 29.36703125 12.55554688 30.3046875 12.91015625 C31.66207031 13.41482422 31.66207031 13.41482422 33.046875 13.9296875 C35.4296875 15.09765625 35.4296875 15.09765625 37.4296875 18.09765625 C33.43739521 17.66605708 30.01949939 16.60629865 26.3046875 15.16015625 C13.7675245 10.53414424 0.63985332 10.55433146 -12.5703125 10.09765625 C-12.2403125 8.77765625 -11.9103125 7.45765625 -11.5703125 6.09765625 C-10.2503125 5.76765625 -8.9303125 5.43765625 -7.5703125 5.09765625 C-7.3846875 4.13859375 -7.3846875 4.13859375 -7.1953125 3.16015625 C-6.9890625 2.47953125 -6.7828125 1.79890625 -6.5703125 1.09765625 C-4.16971433 -0.10264283 -2.67670601 -0.01694118 0 0 Z " fill="#DEBD6C" transform="translate(632.5703125,346.90234375)"/>
<path d="M0 0 C3.3 0 6.6 0 10 0 C9.44539004 10.56821281 8.52150998 21.02453206 7.1875 31.52734375 C7.01165824 32.93693814 6.83612768 34.34657139 6.66088867 35.75624084 C6.29758588 38.66984964 5.93087604 41.58300174 5.56152344 44.49584961 C5.08774903 48.23417104 4.62245012 51.97349269 4.15953064 55.71317196 C3.80067395 58.60534835 3.4376896 61.49699468 3.07339478 64.38849068 C2.89992113 65.76909531 2.72769352 67.14985709 2.55673218 68.53077507 C2.31934828 70.44283431 2.07585164 72.35413172 1.83203125 74.26538086 C1.69514893 75.3518541 1.5582666 76.43832733 1.41723633 77.557724 C1 80 1 80 0 81 C-2.8843382 81.08865208 -5.74462158 81.11521296 -8.62890625 81.09765625 C-9.92525246 81.09553383 -9.92525246 81.09553383 -11.24778748 81.09336853 C-14.01939292 81.08775239 -16.7909188 81.07519719 -19.5625 81.0625 C-21.4368478 81.05748708 -23.31119685 81.05292381 -25.18554688 81.04882812 C-29.79039544 81.03777772 -34.39518421 81.0205023 -39 81 C-39 80.67 -39 80.34 -39 80 C-37.95199219 79.93941406 -36.90398438 79.87882813 -35.82421875 79.81640625 C-34.44529952 79.73198262 -33.06639395 79.64733553 -31.6875 79.5625 C-30.99720703 79.52318359 -30.30691406 79.48386719 -29.59570312 79.44335938 C-26.52838465 79.25072585 -23.93031848 78.97677283 -21 78 C-21 78.66 -21 79.32 -21 80 C-18.87465341 79.85930804 -16.74972471 79.71229079 -14.625 79.5625 C-13.44164062 79.48128906 -12.25828125 79.40007812 -11.0390625 79.31640625 C-8.08481099 79.18915064 -8.08481099 79.18915064 -6 78 C-3.99199544 78.28112064 -1.98985949 78.61067967 0 79 C0 76.36 0 73.72 0 71 C-0.99 70.67 -1.98 70.34 -3 70 C-1.02 69.505 -1.02 69.505 1 69 C1 67.35 1 65.7 1 64 C0.01 63.505 0.01 63.505 -1 63 C-0.79503906 61.94941406 -0.59007812 60.89882813 -0.37890625 59.81640625 C1.39391824 50.79441146 1.39391824 50.79441146 2.625 41.6875 C3 38 3 38 4 35 C3.01 34.505 3.01 34.505 2 34 C2.66 34 3.32 34 4 34 C4.33 27.73 4.66 21.46 5 15 C5.66 15 6.32 15 7 15 C7 11.04 7 7.08 7 3 C4.69 2.34 2.38 1.68 0 1 C0 0.67 0 0.34 0 0 Z " fill="#C9A85D" transform="translate(719,545)"/>
<path d="M0 0 C41.91 0 83.82 0 127 0 C127 2.31 127 4.62 127 7 C126.01 6.67 125.02 6.34 124 6 C124.66 6 125.32 6 126 6 C126 4.35 126 2.7 126 1 C84.75 1 43.5 1 1 1 C1.99483202 2.21643292 1.99483202 2.21643292 3.94946289 2.11352539 C5.1984436 2.10567017 5.1984436 2.10567017 6.47265625 2.09765625 C7.82133789 2.09282227 7.82133789 2.09282227 9.19726562 2.08789062 C10.61555664 2.07532227 10.61555664 2.07532227 12.0625 2.0625 C13.01189453 2.05798828 13.96128906 2.05347656 14.93945312 2.04882812 C17.29303065 2.0370011 19.64648477 2.02052025 22 2 C19.35261084 3.4606285 18.10551666 4 15 4 C15 5.32 15 6.64 15 8 C10.05 8 5.1 8 0 8 C0 5.36 0 2.72 0 0 Z " fill="#B89954" transform="translate(308,344)"/>
<path d="M0 0 C0.33 0 0.66 0 1 0 C2.09597525 52.25881326 2.09597525 52.25881326 2.125 70.75 C2.12951172 71.89807129 2.13402344 73.04614258 2.13867188 74.22900391 C2.12764991 80.23505655 1.78496543 86.04423052 1 92 C0.34 91.67 -0.32 91.34 -1 91 C-1.02312215 79.28273212 -1.04091443 67.56546963 -1.05181217 55.84818363 C-1.05704128 50.40797688 -1.06413943 44.96778569 -1.07543945 39.52758789 C-1.08626735 34.28214298 -1.09227662 29.03671308 -1.09487724 23.79125786 C-1.09673167 21.78529054 -1.10035262 19.77932408 -1.10573006 17.77336311 C-1.11293919 14.97397176 -1.113991 12.17464321 -1.11352539 9.37524414 C-1.11712067 8.53727295 -1.12071594 7.69930176 -1.12442017 6.8359375 C-1.11405216 1.11405216 -1.11405216 1.11405216 0 0 Z " fill="#F9E48F" transform="translate(529,377)"/>
<path d="M0 0 C41.25 0 82.5 0 125 0 C125 0.33 125 0.66 125 1 C123.68907631 1.01213028 123.68907631 1.01213028 122.35166931 1.02450562 C114.09796847 1.10258728 105.84442773 1.18991866 97.5909338 1.28752708 C93.34817179 1.33738009 89.10543336 1.38371073 84.86254883 1.421875 C80.76459464 1.45886719 76.66684312 1.50526417 72.56906319 1.55806351 C71.00908542 1.57653367 69.44906433 1.59166859 67.88902092 1.60334396 C65.69655674 1.62033357 63.50454929 1.64939728 61.31225586 1.68115234 C59.44361122 1.70113785 59.44361122 1.70113785 57.53721619 1.7215271 C53.71985328 2.02205499 50.63135795 2.83042687 47 4 C47 3.34 47 2.68 47 2 C43.7 2.33 40.4 2.66 37 3 C36.67 3.99 36.34 4.98 36 6 C35.01 6 34.02 6 33 6 C33 4.68 33 3.36 33 2 C31.93458984 2.12568359 31.93458984 2.12568359 30.84765625 2.25390625 C29.92855469 2.35574219 29.00945312 2.45757812 28.0625 2.5625 C26.68771484 2.71912109 26.68771484 2.71912109 25.28515625 2.87890625 C24.53105469 2.91886719 23.77695312 2.95882813 23 3 C22.67 2.67 22.34 2.34 22 2 C20.44051458 1.84313751 18.87457332 1.74923361 17.30859375 1.68359375 C16.36435547 1.64169922 15.42011719 1.59980469 14.44726562 1.55664062 C13.45404297 1.51732422 12.46082031 1.47800781 11.4375 1.4375 C10.44041016 1.39431641 9.44332031 1.35113281 8.41601562 1.30664062 C5.9441585 1.20019702 3.4721969 1.09818072 1 1 C0.67 2.32 0.34 3.64 0 5 C0 3.35 0 1.7 0 0 Z " fill="#EAC46B" transform="translate(309,345)"/>
<path d="M0 0 C0.66 0.33 1.32 0.66 2 1 C2 30.04 2 59.08 2 89 C1.01 89 0.02 89 -1 89 C-1.02319135 78.93369218 -1.04094973 68.86739074 -1.05181217 58.80106163 C-1.05702613 54.12664215 -1.06409678 49.45224098 -1.07543945 44.77783203 C-1.08632117 40.26503953 -1.09228805 35.75226461 -1.09487724 31.23945999 C-1.09672196 29.51952462 -1.10032423 27.79959019 -1.10573006 26.07966232 C-1.11301062 23.66685674 -1.11398798 21.25412343 -1.11352539 18.84130859 C-1.11712067 18.13352264 -1.12071594 17.42573669 -1.12442017 16.69650269 C-1.11613957 12.69342372 -0.77136623 8.92787145 0 5 C-0.66 4.67 -1.32 4.34 -2 4 C-1.34 2.68 -0.68 1.36 0 0 Z " fill="#FAE48E" transform="translate(579,483)"/>
<path d="M0 0 C0.99 0.66 1.98 1.32 3 2 C2.01 2 1.02 2 0 2 C0.01474869 3.13925934 0.02949738 4.27851868 0.04469299 5.45230103 C0.18304305 16.19315521 0.31575642 26.93406626 0.4429636 37.67505836 C0.50854147 43.19698646 0.57609912 48.71887549 0.64819336 54.24072266 C0.71770595 59.57042997 0.78200222 64.90017712 0.84269524 70.22999191 C0.86675515 72.2625494 0.89268876 74.29508561 0.92053413 76.32759476 C0.95923884 79.17620774 0.9912576 82.02482384 1.02172852 84.87353516 C1.03467453 85.71223145 1.04762054 86.55092773 1.06095886 87.41503906 C1.09983269 91.73537331 0.87349894 95.74394131 0 100 C-2 98 -2 98 -2.20927429 94.08372498 C-2.20032808 92.35057184 -2.18000385 90.61745707 -2.15112305 88.88452148 C-2.14326782 87.93973938 -2.1354126 86.99495728 -2.12731934 86.02154541 C-2.09866153 82.88787431 -2.05542742 79.75458833 -2.01171875 76.62109375 C-1.98809674 74.45159178 -1.96522298 72.28208155 -1.94306946 70.11256409 C-1.89448106 65.56200537 -1.83910173 61.0115968 -1.77856445 56.46118164 C-1.70099655 50.61427172 -1.63665084 44.76731194 -1.57690716 38.92019558 C-1.53028746 34.43963188 -1.47850011 29.95914048 -1.42493629 25.47865486 C-1.39943867 23.32198516 -1.37514722 21.16530086 -1.3520565 19.00860405 C-1.31872293 16.00100834 -1.27887761 12.9935721 -1.23706055 9.98608398 C-1.22816299 9.08579971 -1.21926544 8.18551544 -1.21009827 7.25794983 C-1.11448276 1.11448276 -1.11448276 1.11448276 0 0 Z " fill="#DABA69" transform="translate(396,480)"/>
<path d="M0 0 C0.33 0 0.66 0 1 0 C3.47332016 14.46627396 3.22877773 28.86734065 3.125 43.5 C3.11494713 45.98046512 3.10582537 48.46093421 3.09765625 50.94140625 C3.07583264 56.96102521 3.04253898 62.98049362 3 69 C2.34 68.67 1.68 68.34 1 68 C-0.42959762 59.38751234 -0.137218 50.40646946 -0.09765625 41.69921875 C-0.0962413 40.4968306 -0.09482635 39.29444244 -0.09336853 38.05561829 C-0.08783156 34.26621874 -0.07529136 30.47688127 -0.0625 26.6875 C-0.05747684 24.09700607 -0.05291537 21.5065112 -0.04882812 18.91601562 C-0.03788289 12.61065639 -0.02120903 6.30533263 0 0 Z " fill="#F4D983" transform="translate(578,384)"/>
<path d="M0 0 C0.33 0 0.66 0 1 0 C1 27.72 1 55.44 1 84 C0.67 84 0.34 84 0 84 C-0.33 64.2 -0.66 44.4 -1 24 C-1.66 24 -2.32 24 -3 24 C-2.855625 23.360625 -2.71125 22.72125 -2.5625 22.0625 C-1.51812006 16.37643142 -0.93552206 10.78459217 -1 5 C-1 1 -1 1 0 0 Z " fill="#D5B666" transform="translate(395,384)"/>
<path d="M0 0 C12.54 0 25.08 0 38 0 C38.495 0.99 38.495 0.99 39 2 C33.10217988 3.28542233 27.25992091 3.12621861 21.2578125 3.09765625 C20.13430389 3.0962413 19.01079529 3.09482635 17.85324097 3.09336853 C14.27713317 3.08778664 10.70108877 3.07523741 7.125 3.0625 C4.69531341 3.05748266 2.26562583 3.05292016 -0.1640625 3.04882812 C-6.10939651 3.03782314 -12.05469372 3.02110301 -18 3 C-18 2.67 -18 2.34 -18 2 C-12.06 1.67 -6.12 1.34 0 1 C0 0.67 0 0.34 0 0 Z " fill="#DDBE6B" transform="translate(647,623)"/>
<path d="M0 0 C3.465 1.98 3.465 1.98 7 4 C7 4.66 7 5.32 7 6 C7.59039063 6.25910156 8.18078125 6.51820313 8.7890625 6.78515625 C16.02485386 10.76100628 20.91721782 19.61623945 24 27 C23.67 27.66 23.34 28.32 23 29 C20.31849081 26.5688727 18.61513037 23.90216689 16.75 20.8125 C12.75769647 14.45002891 8.42440643 8.85855825 2.5625 4.125 C1.716875 3.42375 0.87125 2.7225 0 2 C0 1.34 0 0.68 0 0 Z " fill="#D9B767" transform="translate(671,365)"/>
<path d="M0 0 C0.66015625 1.78125 0.66015625 1.78125 1 4 C-2.198735 9.6755765 -7.89819996 13.96606665 -14 16 C-14 16.66 -14 17.32 -14 18 C-14.99 18.33 -15.98 18.66 -17 19 C-17.99 18.01 -18.98 17.02 -20 16 C-19.39414062 15.68289063 -18.78828125 15.36578125 -18.1640625 15.0390625 C-10.96297066 11.02860827 -5.59047978 6.01868674 0 0 Z " fill="#DDBD6C" transform="translate(698,589)"/>
<path d="M0 0 C0.66 0.66 1.32 1.32 2 2 C1.67120353 4.38377441 0.85985734 6.33799112 -0.0625 8.5625 C-1.17948954 11.03141067 -1.17948954 11.03141067 -1 14 C-2.1875 15.75 -2.1875 15.75 -4 18 C-5.27855156 19.86555951 -6.55189158 21.73426913 -7.81640625 23.609375 C-8.20699219 24.06828125 -8.59757813 24.5271875 -9 25 C-9.66 25 -10.32 25 -11 25 C-9.68995792 21.67311449 -8.30751973 18.39522225 -6.8359375 15.13671875 C-6.43632813 14.25048828 -6.03671875 13.36425781 -5.625 12.45117188 C-5.2125 11.53916016 -4.8 10.62714844 -4.375 9.6875 C-3.95476563 8.75615234 -3.53453125 7.82480469 -3.1015625 6.86523438 C-2.06865057 4.57639545 -1.03476766 2.28800041 0 0 Z " fill="#D3B163" transform="translate(714,558)"/>
<path d="M0 0 C6.6 0 13.2 0 20 0 C16 2 16 2 13 2 C13 3.32 13 4.64 13 6 C8.71 5.34 4.42 4.68 0 4 C0 2.68 0 1.36 0 0 Z " fill="#C5A357" transform="translate(310,346)"/>
<path d="M0 0 C-0.99 1.485 -0.99 1.485 -2 3 C-1.34 3.66 -0.68 4.32 0 5 C-2.31 5 -4.62 5 -7 5 C-7.33 3.68 -7.66 2.36 -8 1 C-8 2.65 -8 4.3 -8 6 C0.25 6 8.5 6 17 6 C17 6.33 17 6.66 17 7 C8.42 7 -0.16 7 -9 7 C-10.04449911 3.86650268 -9.93423645 3.01031744 -9 0 C-5.62182575 -0.84454356 -3.32534757 -1.10844919 0 0 Z " fill="#D4B667" transform="translate(496,619)"/>
<path d="M0 0 C10.56 0 21.12 0 32 0 C29.38058783 1.74627478 27.96175123 2.38722388 25 3 C25 2.34 25 1.68 25 1 C21.7 1.33 18.4 1.66 15 2 C14.67 2.99 14.34 3.98 14 5 C13.01 5 12.02 5 11 5 C11 3.68 11 2.36 11 1 C7.7 1.33 4.4 1.66 1 2 C0.67 1.34 0.34 0.68 0 0 Z " fill="#C19E55" transform="translate(331,346)"/>
<path d="M0 0 C0.33 0 0.66 0 1 0 C1.06058594 0.85722656 1.12117188 1.71445312 1.18359375 2.59765625 C1.68287394 9.92207014 1.68287394 9.92207014 2.6875 17.1875 C2.790625 18.115625 2.89375 19.04375 3 20 C2.34 20.66 1.68 21.32 1 22 C1 21.34 1 20.68 1 20 C0.34 19.67 -0.32 19.34 -1 19 C-0.6596875 17.8553125 -0.6596875 17.8553125 -0.3125 16.6875 C-0.209375 15.800625 -0.10625 14.91375 0 14 C-1.35405861 12.39588754 -1.35405861 12.39588754 -3 11 C-3.6875 8.8125 -3.6875 8.8125 -4 7 C-3.34 7 -2.68 7 -2 7 C-2 6.01 -2 5.02 -2 4 C-1.34 4 -0.68 4 0 4 C0 2.68 0 1.36 0 0 Z " fill="#D5B667" transform="translate(396,580)"/>
<path d="M0 0 C0.33 0 0.66 0 1 0 C1.20542083 14.76747504 1.20542083 14.76747504 0 22 C-0.66 22.33 -1.32 22.66 -2 23 C-2.66 22.34 -3.32 21.68 -4 21 C-3.85986328 18.84521484 -3.85986328 18.84521484 -3.3203125 16.2109375 C-3.13339844 15.26992188 -2.94648437 14.32890625 -2.75390625 13.359375 C-2.54636719 12.37453125 -2.33882812 11.3896875 -2.125 10.375 C-1.92519531 9.38242187 -1.72539063 8.38984375 -1.51953125 7.3671875 C-1.02320546 4.90919314 -0.51630323 2.45386225 0 0 Z " fill="#D2B162" transform="translate(722,587)"/>
<path d="M0 0 C-0.33 0.99 -0.66 1.98 -1 3 C-6.61 3.99 -12.22 4.98 -18 6 C-18.33 5.01 -18.66 4.02 -19 3 C-16.39643759 2.49666458 -13.79223349 1.99720622 -11.1875 1.5 C-10.08051758 1.28537109 -10.08051758 1.28537109 -8.95117188 1.06640625 C-5.92205609 0.49073719 -3.090804 0 0 0 Z " fill="#CCAA5D" transform="translate(328,616)"/>
<path d="M0 0 C0 3.87174879 -1.16354335 4.76047249 -3.6875 7.625 C-4.37199219 8.42164063 -5.05648438 9.21828125 -5.76171875 10.0390625 C-8.23852349 12.20896822 -9.7672277 12.67162733 -13 13 C-13.33 12.01 -13.66 11.02 -14 10 C-13.40832031 9.69707031 -12.81664062 9.39414062 -12.20703125 9.08203125 C-7.38110043 6.52342192 -3.62551378 4.09332201 0 0 Z " fill="#CDAC5E" transform="translate(342,605)"/>
<path d="M0 0 C6.89203498 1.20337119 12.06080693 3.32135086 18 7 C15.52133383 7.89006649 14.31574627 8.10561935 11.78125 7.2578125 C11.0284375 6.88398438 10.275625 6.51015625 9.5 6.125 C6.24768512 4.53113947 6.24768512 4.53113947 2.78125 3.5546875 C2.1934375 3.37164062 1.605625 3.18859375 1 3 C0.67 2.01 0.34 1.02 0 0 Z " fill="#F0D480" transform="translate(631,481)"/>
<path d="M0 0 C0.33 0.99 0.66 1.98 1 3 C0.01 3.495 0.01 3.495 -1 4 C-0.67 2.68 -0.34 1.36 0 0 Z M2 5 C1.01 5.66 0.02 6.32 -1 7 C4.28 7.33 9.56 7.66 15 8 C15 8.33 15 8.66 15 9 C8.07 9 1.14 9 -6 9 C-5.67 7.68 -5.34 6.36 -5 5 C-2.3333581 3.66667905 -0.83319697 4.32897967 2 5 Z " fill="#DEBD6C" transform="translate(626,348)"/>
<path d="M0 0 C0.33 0 0.66 0 1 0 C1.56008868 5.60088677 -0.07808138 9.36046706 -3 14 C-5.25 16.5 -5.25 16.5 -7 18 C-7.66 17.67 -8.32 17.34 -9 17 C-8.27683594 15.91332031 -8.27683594 15.91332031 -7.5390625 14.8046875 C-6.90742187 13.83789062 -6.27578125 12.87109375 -5.625 11.875 C-4.99851562 10.92367187 -4.37203125 9.97234375 -3.7265625 8.9921875 C-2.02318931 6.04018781 -0.95806591 3.26129506 0 0 Z " fill="#F3D981" transform="translate(526,594)"/>
<path d="M0 0 C1.82917482 3.65834963 2.24772037 4.6587671 2.1953125 8.44140625 C2.18886719 9.27220703 2.18242187 10.10300781 2.17578125 10.95898438 C2.15902344 11.81814453 2.14226562 12.67730469 2.125 13.5625 C2.11597656 14.42552734 2.10695313 15.28855469 2.09765625 16.17773438 C2.0802471 17.77813232 2.05872535 19.37849467 2.03173828 20.97875977 C2.00545919 22.65233364 2 24.32621982 2 26 C1.34 26.66 0.68 27.32 0 28 C0 18.76 0 9.52 0 0 Z " fill="#E6C36D" transform="translate(349,396)"/>
<path d="M0 0 C-3.27066878 2.18044585 -4.25418727 2.09857402 -8 2 C-8.33 2.33 -8.66 2.66 -9 3 C-10.51928038 3.07179964 -12.04167482 3.08392007 -13.5625 3.0625 C-14.38878906 3.05347656 -15.21507812 3.04445313 -16.06640625 3.03515625 C-16.70449219 3.02355469 -17.34257813 3.01195312 -18 3 C-18 2.34 -18 1.68 -18 1 C-11.97403427 -0.0712828 -6.11090483 -0.09945415 0 0 Z " fill="#F2D680" transform="translate(635,467)"/>
<path d="M0 0 C-0.99 1.485 -0.99 1.485 -2 3 C-1.34 3.66 -0.68 4.32 0 5 C-2.31 5 -4.62 5 -7 5 C-7 4.01 -7 3.02 -7 2 C-7.66 1.34 -8.32 0.68 -9 0 C-5.62182575 -0.84454356 -3.32534757 -1.10844919 0 0 Z " fill="#DEBD6B" transform="translate(496,619)"/>
<path d="M0 0 C3.00362311 4.50543467 4.20082399 8.91143046 3.6875 14.25 C3.3471875 15.61125 3.3471875 15.61125 3 17 C2.814375 17.78375 2.62875 18.5675 2.4375 19.375 C2.293125 19.91125 2.14875 20.4475 2 21 C0.85345518 18.70691037 0.80270883 17.20090344 0.68359375 14.6484375 C0.62075195 13.37226563 0.62075195 13.37226563 0.55664062 12.0703125 C0.51732422 11.18085938 0.47800781 10.29140625 0.4375 9.375 C0.39431641 8.4778125 0.35113281 7.580625 0.30664062 6.65625 C0.20043139 4.43765717 0.09838806 2.2189512 0 0 Z " fill="#DAB765" transform="translate(348,371)"/>
<path d="M0 0 C1.65 0.33 3.3 0.66 5 1 C4.2884375 1.61875 4.2884375 1.61875 3.5625 2.25 C1.81484121 4.20737785 1.49089359 5.46371645 1 8 C0 10 0 10 -2 13 C-3.18771723 9.57056481 -2.80226223 7.62215325 -1.5625 4.25 C-1.27503906 3.45078125 -0.98757813 2.6515625 -0.69140625 1.828125 C-0.46324219 1.22484375 -0.23507812 0.6215625 0 0 Z " fill="#CDAD5F" transform="translate(718,546)"/>
<path d="M0 0 C0 0.33 0 0.66 0 1 C-6.93 0.67 -13.86 0.34 -21 0 C-21 -0.33 -21 -0.66 -21 -1 C-6.21867882 -2.51708428 -6.21867882 -2.51708428 0 0 Z " fill="#E8C873" transform="translate(649,356)"/>
<path d="M0 0 C1.41791408 0.45445964 2.83428046 0.91374944 4.25 1.375 C5.43335938 1.75785156 5.43335938 1.75785156 6.640625 2.1484375 C8.86627958 2.95173667 10.90931672 3.89711662 13 5 C11.35 5.66 9.7 6.32 8 7 C7.34 6.34 6.68 5.68 6 5 C4.01612292 3.96838392 2.01723344 2.96476382 0 2 C0 1.34 0 0.68 0 0 Z " fill="#D0AF60" transform="translate(411,613)"/>
<path d="M0 0 C0.33 0.99 0.66 1.98 1 3 C1.99 2.67 2.98 2.34 4 2 C4 2.66 4 3.32 4 4 C4.66 4 5.32 4 6 4 C6 4.66 6 5.32 6 6 C0.06 4.515 0.06 4.515 -6 3 C-6 2.67 -6 2.34 -6 2 C-4.02 1.34 -2.04 0.68 0 0 Z " fill="#C1A056" transform="translate(329,350)"/>
<path d="M0 0 C0.33 0 0.66 0 1 0 C1.33 4.95 1.66 9.9 2 15 C1.34 13.68 0.68 12.36 0 11 C-0.66 11 -1.32 11 -2 11 C-1.855625 10.484375 -1.71125 9.96875 -1.5625 9.4375 C-0.84190099 6.31490429 -0.42733561 3.17449308 0 0 Z " fill="#C3A35B" transform="translate(701,350)"/>
<path d="M0 0 C2 2 2 2 2.1953125 4.3828125 C2.17210937 5.28773438 2.14890625 6.19265625 2.125 7.125 C2.10695313 8.03507812 2.08890625 8.94515625 2.0703125 9.8828125 C2.03550781 10.93082031 2.03550781 10.93082031 2 12 C1.34 12 0.68 12 0 12 C-0.76173392 7.6835078 -1.16063604 4.25566547 0 0 Z " fill="#F8E08A" transform="translate(579,456)"/>
<path d="M0 0 C0.66 0.33 1.32 0.66 2 1 C0.515 4.96 0.515 4.96 -1 9 C-1.66 8.67 -2.32 8.34 -3 8 C-2.25 2.25 -2.25 2.25 0 0 Z " fill="#D1B062" transform="translate(399,364)"/>
<path d="M0 0 C0.66 0 1.32 0 2 0 C2 2.64 2 5.28 2 8 C1.01 7.67 0.02 7.34 -1 7 C-1.6875 4.9375 -1.6875 4.9375 -2 3 C-1.34 3 -0.68 3 0 3 C0 2.01 0 1.02 0 0 Z " fill="#DDBD6A" transform="translate(394,584)"/>
<path d="M0 0 C0.66 0.99 1.32 1.98 2 3 C0.68 4.32 -0.64 5.64 -2 7 C-2 3 -2 3 0 0 Z " fill="#D8B667" transform="translate(702,583)"/>
<path d="" fill="#BFA058" transform="translate(0,0)"/>
<path d="M0 0 C3 1 3 1 3 1 Z " fill="#ECD07E" transform="translate(632,485)"/>
<path d="M0 0 C3 1 3 1 3 1 Z " fill="#DEC06E" transform="translate(627,358)"/>
<path d="" fill="#BEA05A" transform="translate(0,0)"/>
<path d="" fill="#D5BA6A" transform="translate(0,0)"/>
<path d="" fill="#CCAF63" transform="translate(0,0)"/>
<path d="M0 0 C2 1 2 1 2 1 Z " fill="#BD9D58" transform="translate(703,405)"/>
<path d="" fill="#B59958" transform="translate(0,0)"/>
<path d="M0 0 C2 1 2 1 2 1 Z " fill="#E3C674" transform="translate(604,358)"/>
<path d="M0 0 C2 1 2 1 2 1 Z " fill="#E7C876" transform="translate(593,358)"/>
<path d="M0 0 C2 1 2 1 2 1 Z " fill="#E0C574" transform="translate(512,357)"/>
<path d="" fill="#B99B57" transform="translate(0,0)"/>
<path d="" fill="#A88E4F" transform="translate(0,0)"/>
<path d="" fill="#2D2818" transform="translate(0,0)"/>
<path d="" fill="#2B2617" transform="translate(0,0)"/>
<path d="" fill="#2D2619" transform="translate(0,0)"/>
<path d="" fill="#2D2618" transform="translate(0,0)"/>
<path d="" fill="#2D2618" transform="translate(0,0)"/>
<path d="" fill="#2D2718" transform="translate(0,0)"/>
<path d="" fill="#2C2518" transform="translate(0,0)"/>
<path d="" fill="#2C271A" transform="translate(0,0)"/>
<path d="" fill="#2B2617" transform="translate(0,0)"/>
<path d="" fill="#2B2617" transform="translate(0,0)"/>
<path d="" fill="#2C2919" transform="translate(0,0)"/>
<path d="" fill="#2F2A19" transform="translate(0,0)"/>
<path d="" fill="#2D2719" transform="translate(0,0)"/>
<path d="" fill="#2E2817" transform="translate(0,0)"/>
<path d="" fill="#2B2517" transform="translate(0,0)"/>
<path d="" fill="#2A2718" transform="translate(0,0)"/>
<path d="" fill="#2B2718" transform="translate(0,0)"/>
<path d="" fill="#2D2817" transform="translate(0,0)"/>
<path d="" fill="#2C2718" transform="translate(0,0)"/>
<path d="" fill="#2B2818" transform="translate(0,0)"/>
<path d="" fill="#2B2617" transform="translate(0,0)"/>
<path d="" fill="#2C2717" transform="translate(0,0)"/>
<path d="" fill="#2B2718" transform="translate(0,0)"/>
<path d="" fill="#2D2818" transform="translate(0,0)"/>
<path d="" fill="#2A2617" transform="translate(0,0)"/>
<path d="" fill="#2C2717" transform="translate(0,0)"/>
<path d="" fill="#2D2719" transform="translate(0,0)"/>
<path d="" fill="#2F2817" transform="translate(0,0)"/>
<path d="" fill="#2C2818" transform="translate(0,0)"/>
<path d="" fill="#2B2517" transform="translate(0,0)"/>
<path d="" fill="#2D2718" transform="translate(0,0)"/>
<path d="" fill="#2C2718" transform="translate(0,0)"/>
<path d="" fill="#2D2818" transform="translate(0,0)"/>
<path d="" fill="#2F2A1A" transform="translate(0,0)"/>
<path d="" fill="#2C2819" transform="translate(0,0)"/>
<path d="" fill="#2E271A" transform="translate(0,0)"/>
<path d="" fill="#2C2618" transform="translate(0,0)"/>
<path d="" fill="#2B2817" transform="translate(0,0)"/>
<path d="" fill="#2D2717" transform="translate(0,0)"/>
<path d="" fill="#2D2717" transform="translate(0,0)"/>
<path d="" fill="#2D2718" transform="translate(0,0)"/>
<path d="" fill="#2C2717" transform="translate(0,0)"/>
<path d="" fill="#2E2815" transform="translate(0,0)"/>
<path d="" fill="#2B2617" transform="translate(0,0)"/>
<path d="" fill="#2B2616" transform="translate(0,0)"/>
<path d="" fill="#2D2819" transform="translate(0,0)"/>
<path d="" fill="#2D2818" transform="translate(0,0)"/>
<path d="" fill="#2B2717" transform="translate(0,0)"/>
<path d="" fill="#2D2617" transform="translate(0,0)"/>
<path d="" fill="#2C2617" transform="translate(0,0)"/>
<path d="" fill="#2D2618" transform="translate(0,0)"/>
<path d="" fill="#2E2817" transform="translate(0,0)"/>
<path d="" fill="#2C2617" transform="translate(0,0)"/>
<path d="" fill="#2D2517" transform="translate(0,0)"/>
<path d="" fill="#2C2816" transform="translate(0,0)"/>
<path d="" fill="#2B2517" transform="translate(0,0)"/>
<path d="" fill="#2A2616" transform="translate(0,0)"/>
<path d="" fill="#2A2416" transform="translate(0,0)"/>
<path d="" fill="#2A2616" transform="translate(0,0)"/>
<path d="" fill="#2C2719" transform="translate(0,0)"/>
<path d="" fill="#2B2515" transform="translate(0,0)"/>
<path d="" fill="#2D2616" transform="translate(0,0)"/>
<path d="" fill="#2E2918" transform="translate(0,0)"/>
<path d="" fill="#2A2616" transform="translate(0,0)"/>
<path d="" fill="#2B2415" transform="translate(0,0)"/>
<path d="" fill="#2E291A" transform="translate(0,0)"/>
<path d="" fill="#2C2916" transform="translate(0,0)"/>
<path d="" fill="#2F2B19" transform="translate(0,0)"/>
<path d="" fill="#2A2617" transform="translate(0,0)"/>
<path d="" fill="#2B2417" transform="translate(0,0)"/>
<path d="" fill="#2A2516" transform="translate(0,0)"/>
<path d="" fill="#2B2618" transform="translate(0,0)"/>
<path d="" fill="#2E2617" transform="translate(0,0)"/>
<path d="" fill="#372E1A" transform="translate(0,0)"/>
<path d="" fill="#3B341D" transform="translate(0,0)"/>
<path d="" fill="#3A331B" transform="translate(0,0)"/>
<path d="" fill="#3A311C" transform="translate(0,0)"/>
<path d="" fill="#3E361D" transform="translate(0,0)"/>
<path d="" fill="#2A2517" transform="translate(0,0)"/>
<path d="" fill="#2F2918" transform="translate(0,0)"/>
<path d="" fill="#362F1A" transform="translate(0,0)"/>
<path d="" fill="#2F2817" transform="translate(0,0)"/>
<path d="" fill="#2B2617" transform="translate(0,0)"/>
<path d="" fill="#302A18" transform="translate(0,0)"/>
<path d="" fill="#322B18" transform="translate(0,0)"/>
<path d="" fill="#312A18" transform="translate(0,0)"/>
<path d="" fill="#2E2A18" transform="translate(0,0)"/>
<path d="" fill="#2D2619" transform="translate(0,0)"/>
<path d="" fill="#342D1C" transform="translate(0,0)"/>
<path d="" fill="#2E2918" transform="translate(0,0)"/>
<path d="" fill="#362E1A" transform="translate(0,0)"/>
<path d="" fill="#352E1B" transform="translate(0,0)"/>
<path d="" fill="#423920" transform="translate(0,0)"/>
<path d="" fill="#B39655" transform="translate(0,0)"/>
<path d="" fill="#B79A56" transform="translate(0,0)"/>
<path d="" fill="#CBAB62" transform="translate(0,0)"/>
<path d="" fill="#D0B265" transform="translate(0,0)"/>
<path d="" fill="#DEBF6E" transform="translate(0,0)"/>
<path d="" fill="#E0C070" transform="translate(0,0)"/>
<path d="" fill="#E5C773" transform="translate(0,0)"/>
<path d="" fill="#E4C773" transform="translate(0,0)"/>
<path d="" fill="#BC9E56" transform="translate(0,0)"/>
<path d="" fill="#BFA058" transform="translate(0,0)"/>
<path d="" fill="#BE9C57" transform="translate(0,0)"/>
<path d="" fill="#BE9D56" transform="translate(0,0)"/>
<path d="" fill="#C7AA5F" transform="translate(0,0)"/>
<path d="" fill="#37301E" transform="translate(0,0)"/>
<path d="" fill="#332D1B" transform="translate(0,0)"/>
<path d="" fill="#9D8146" transform="translate(0,0)"/>
<path d="" fill="#A18547" transform="translate(0,0)"/>
<path d="" fill="#CFB267" transform="translate(0,0)"/>
<path d="" fill="#38321E" transform="translate(0,0)"/>
<path d="" fill="#BC9F5B" transform="translate(0,0)"/>
<path d="" fill="#F4DB85" transform="translate(0,0)"/>
<path d="" fill="#F6DB85" transform="translate(0,0)"/>
<path d="" fill="#3B341D" transform="translate(0,0)"/>
<path d="" fill="#BB9E58" transform="translate(0,0)"/>
<path d="" fill="#D1B165" transform="translate(0,0)"/>
<path d="" fill="#3D3620" transform="translate(0,0)"/>
<path d="" fill="#B29654" transform="translate(0,0)"/>
<path d="" fill="#3B331E" transform="translate(0,0)"/>
<path d="" fill="#4F4326" transform="translate(0,0)"/>
<path d="" fill="#DBBE70" transform="translate(0,0)"/>
<path d="" fill="#362E1C" transform="translate(0,0)"/>
<path d="" fill="#EDCE7C" transform="translate(0,0)"/>
<path d="" fill="#342F1D" transform="translate(0,0)"/>
<path d="" fill="#D7B76A" transform="translate(0,0)"/>
<path d="" fill="#4F4325" transform="translate(0,0)"/>
<path d="" fill="#E0C372" transform="translate(0,0)"/>
<path d="" fill="#ECD07D" transform="translate(0,0)"/>
<path d="" fill="#F8E088" transform="translate(0,0)"/>
<path d="" fill="#3E3620" transform="translate(0,0)"/>
<path d="" fill="#3B341D" transform="translate(0,0)"/>
<path d="" fill="#3A341F" transform="translate(0,0)"/>
<path d="" fill="#D6B96B" transform="translate(0,0)"/>
<path d="" fill="#39331F" transform="translate(0,0)"/>
<path d="" fill="#504629" transform="translate(0,0)"/>
<path d="" fill="#CCAF63" transform="translate(0,0)"/>
<path d="" fill="#B69655" transform="translate(0,0)"/>
<path d="" fill="#BB9B59" transform="translate(0,0)"/>
<path d="" fill="#B39451" transform="translate(0,0)"/>
<path d="" fill="#B89B57" transform="translate(0,0)"/>
<path d="" fill="#C8AB61" transform="translate(0,0)"/>
<path d="" fill="#B79A58" transform="translate(0,0)"/>
<path d="" fill="#C8A75F" transform="translate(0,0)"/>
<path d="" fill="#37321F" transform="translate(0,0)"/>
<path d="" fill="#C4A65C" transform="translate(0,0)"/>
<path d="" fill="#CDAD61" transform="translate(0,0)"/>
<path d="" fill="#5F522F" transform="translate(0,0)"/>
<path d="" fill="#C3A45D" transform="translate(0,0)"/>
<path d="" fill="#EACD79" transform="translate(0,0)"/>
<path d="" fill="#37321E" transform="translate(0,0)"/>
<path d="" fill="#DDBE6E" transform="translate(0,0)"/>
<path d="" fill="#E5C575" transform="translate(0,0)"/>
<path d="" fill="#E7CA78" transform="translate(0,0)"/>
<path d="" fill="#DDC070" transform="translate(0,0)"/>
<path d="" fill="#BA9B55" transform="translate(0,0)"/>
<path d="" fill="#37321E" transform="translate(0,0)"/>
<path d="" fill="#423A22" transform="translate(0,0)"/>
<path d="" fill="#413A22" transform="translate(0,0)"/>
<path d="" fill="#3E361E" transform="translate(0,0)"/>
<path d="" fill="#BDA05B" transform="translate(0,0)"/>
<path d="" fill="#C9AC63" transform="translate(0,0)"/>
<path d="" fill="#BDA25A" transform="translate(0,0)"/>
<path d="" fill="#B69955" transform="translate(0,0)"/>
<path d="" fill="#C9AC66" transform="translate(0,0)"/>
<path d="" fill="#A1864B" transform="translate(0,0)"/>
<path d="" fill="#DEC16F" transform="translate(0,0)"/>
<path d="" fill="#C3A45B" transform="translate(0,0)"/>
<path d="" fill="#BB9B56" transform="translate(0,0)"/>
<path d="" fill="#7B683A" transform="translate(0,0)"/>
<path d="" fill="#38321D" transform="translate(0,0)"/>
<path d="" fill="#38321D" transform="translate(0,0)"/>
<path d="" fill="#342E1D" transform="translate(0,0)"/>
<path d="" fill="#37301E" transform="translate(0,0)"/>
<path d="" fill="#37321C" transform="translate(0,0)"/>
<path d="" fill="#38311D" transform="translate(0,0)"/>
<path d="" fill="#3E361E" transform="translate(0,0)"/>
<path d="" fill="#342F1C" transform="translate(0,0)"/>
<path d="" fill="#352F1B" transform="translate(0,0)"/>
<path d="" fill="#352E1B" transform="translate(0,0)"/>
<path d="" fill="#332C19" transform="translate(0,0)"/>
<path d="" fill="#2F2B1A" transform="translate(0,0)"/>
<path d="" fill="#3D361F" transform="translate(0,0)"/>
<path d="" fill="#2E2A1B" transform="translate(0,0)"/>
<path d="" fill="#302919" transform="translate(0,0)"/>
<path d="" fill="#38311E" transform="translate(0,0)"/>
<path d="" fill="#2F2919" transform="translate(0,0)"/>
<path d="" fill="#453C22" transform="translate(0,0)"/>
<path d="" fill="#40381F" transform="translate(0,0)"/>
<path d="" fill="#39321C" transform="translate(0,0)"/>
<path d="" fill="#2F291B" transform="translate(0,0)"/>
<path d="" fill="#332D1B" transform="translate(0,0)"/>
<path d="" fill="#2F2B1A" transform="translate(0,0)"/>
<path d="" fill="#2F2B1A" transform="translate(0,0)"/>
<path d="" fill="#37301C" transform="translate(0,0)"/>
<path d="" fill="#2E2A1B" transform="translate(0,0)"/>
<path d="" fill="#302B1C" transform="translate(0,0)"/>
<path d="" fill="#302A1B" transform="translate(0,0)"/>
<path d="" fill="#2F2919" transform="translate(0,0)"/>
<path d="" fill="#312A1A" transform="translate(0,0)"/>
<path d="" fill="#312D1C" transform="translate(0,0)"/>
<path d="" fill="#352C1B" transform="translate(0,0)"/>
<path d="" fill="#352C1C" transform="translate(0,0)"/>
<path d="" fill="#312B1B" transform="translate(0,0)"/>
<path d="" fill="#302A1A" transform="translate(0,0)"/>
<path d="" fill="#302A1A" transform="translate(0,0)"/>
<path d="" fill="#302C1A" transform="translate(0,0)"/>
<path d="" fill="#332D1B" transform="translate(0,0)"/>
<path d="" fill="#332E1B" transform="translate(0,0)"/>
<path d="" fill="#2F2A1A" transform="translate(0,0)"/>
<path d="" fill="#2E291B" transform="translate(0,0)"/>
<path d="" fill="#312C1B" transform="translate(0,0)"/>
<path d="" fill="#2F291A" transform="translate(0,0)"/>
<path d="" fill="#312B1B" transform="translate(0,0)"/>
<path d="" fill="#2E291C" transform="translate(0,0)"/>
<path d="" fill="#322C1A" transform="translate(0,0)"/>
<path d="" fill="#2F2B1B" transform="translate(0,0)"/>
<path d="" fill="#312B1C" transform="translate(0,0)"/>
<path d="" fill="#322C1C" transform="translate(0,0)"/>
<path d="" fill="#322C1B" transform="translate(0,0)"/>
<path d="" fill="#312C1D" transform="translate(0,0)"/>
<path d="" fill="#322D1E" transform="translate(0,0)"/>
<path d="" fill="#312C1C" transform="translate(0,0)"/>
<path d="" fill="#322B1B" transform="translate(0,0)"/>
<path d="" fill="#302A1B" transform="translate(0,0)"/>
<path d="" fill="#302B1B" transform="translate(0,0)"/>
<path d="" fill="#302B1A" transform="translate(0,0)"/>
<path d="" fill="#322C1B" transform="translate(0,0)"/>
<path d="" fill="#322C1A" transform="translate(0,0)"/>
<path d="" fill="#312B1B" transform="translate(0,0)"/>
<path d="" fill="#312B1B" transform="translate(0,0)"/>
<path d="" fill="#2E2B1A" transform="translate(0,0)"/>
<path d="" fill="#2F2B1C" transform="translate(0,0)"/>
<path d="" fill="#2F2C1B" transform="translate(0,0)"/>
<path d="" fill="#302B1D" transform="translate(0,0)"/>
<path d="" fill="#312C1C" transform="translate(0,0)"/>
<path d="" fill="#322C1B" transform="translate(0,0)"/>
<path d="" fill="#2F2B1B" transform="translate(0,0)"/>
<path d="" fill="#302A1A" transform="translate(0,0)"/>
</svg>
